<?xml version="1.0" encoding="iso-8859-1"?>
<!-- Generator: Adobe Illustrator 25.2.3, SVG Export Plug-In . SVG Version: 6.00 Build 0)  -->
<svg version="1.1" baseProfile="basic" id="Layer_1"
	 xmlns="http://www.w3.org/2000/svg" xmlns:xlink="http://www.w3.org/1999/xlink" x="0px" y="0px" viewBox="0 0 48 48"
	 xml:space="preserve">
<linearGradient id="SVGID_1_" gradientUnits="userSpaceOnUse" x1="37.127" y1="6.873" x2="25.8678" y2="18.1322">
	<stop  offset="0" style="stop-color:#262626;stop-opacity:0"/>
	<stop  offset="0.9135" style="stop-color:#262626;stop-opacity:0.8"/>
</linearGradient>
<path style="fill:url(#SVGID_1_);" d="M28,4v8c0,2.209,1.791,4,4,4h8L28,4z"/>
<linearGradient id="SVGID_2_" gradientUnits="userSpaceOnUse" x1="-8.3979" y1="51.1851" x2="74.7309" y2="-18.5682">
	<stop  offset="0" style="stop-color:#262626;stop-opacity:0"/>
	<stop  offset="1" style="stop-color:#262626;stop-opacity:0.8"/>
</linearGradient>
<path style="fill:url(#SVGID_2_);" d="M40,16v23c0,2.761-2.239,5-5,5H8V9c0-2.761,2.239-5,5-5h15L40,16z"/>
<linearGradient id="SVGID_3_" gradientUnits="userSpaceOnUse" x1="12" y1="60.9697" x2="31.5675" y2="7.2085">
	<stop  offset="0" style="stop-color:#262626;stop-opacity:0"/>
	<stop  offset="1" style="stop-color:#262626;stop-opacity:0.8"/>
</linearGradient>
<path style="fill:url(#SVGID_3_);" d="M33,26H18c-1.657,0-3,1.343-3,3v1h15c1.657,0,3-1.343,3-3V26z M24,18h-6c-1.657,0-3,1.343-3,3
	v1h6c1.657,0,3-1.343,3-3V18z M33,34H18c-1.657,0-3,1.343-3,3v1h15c1.657,0,3-1.343,3-3V34z"/>
</svg>